<svg xmlns="http://www.w3.org/2000/svg" width="640" height="480" viewBox="0 0 320 240" role="img" aria-label="Одеса">
  <defs>
    <linearGradient id="sky" x1="0" x2="1" y1="0" y2="1">
      <stop offset="0" stop-color="#fff7dc"/>
      <stop offset=".58" stop-color="#2b73d2" stop-opacity=".34"/>
      <stop offset="1" stop-color="#2d6070"/>
    </linearGradient>
    <filter id="grain">
      <feTurbulence type="fractalNoise" baseFrequency=".8" numOctaves="2" stitchTiles="stitch"/>
      <feColorMatrix type="saturate" values="0"/>
      <feComponentTransfer><feFuncA type="table" tableValues="0 .08"/></feComponentTransfer>
    </filter>
  </defs>
  <rect width="320" height="240" rx="24" fill="url(#sky)"/>
  <circle cx="260" cy="52" r="30" fill="#fff0b8" opacity=".72"/>
  <path d="M0 160 C42 132 72 150 112 128 C164 100 206 124 252 96 C284 76 304 78 320 68 L320 240 L0 240Z" fill="#2d6070" opacity=".32"/>
  
    <rect x="36" y="154" width="248" height="16" rx="8" fill="#15352e" opacity=".28"/>
    <rect x="42" y="118" width="38" height="50" rx="4" fill="#fff4d4" opacity=".92"/>
    <rect x="92" y="96" width="42" height="72" rx="4" fill="#f4deaa" opacity=".94"/>
    <rect x="146" y="108" width="50" height="60" rx="4" fill="#fff8e7" opacity=".9"/>
    <rect x="210" y="86" width="44" height="82" rx="4" fill="#f0cf85" opacity=".96"/>
  <path d="M0 180 C58 156 116 202 176 176 C222 156 276 172 320 150 L320 240 L0 240Z" fill="#6fcce6"/><circle cx="246" cy="68" r="22" fill="#fff0c4"/>
  <rect width="320" height="240" rx="24" fill="#000" filter="url(#grain)" opacity=".3"/>
  <rect x="16" y="18" width="288" height="204" rx="18" fill="none" stroke="#fff8e8" stroke-opacity=".48" stroke-width="3"/>
  <text x="24" y="42" fill="#fff8e8" font-family="Inter, Arial, sans-serif" font-size="20" font-weight="800">Одеса</text>
</svg>